<svg version="1.1" xmlns="http://www.w3.org/2000/svg" x="0px" y="0px" viewBox="0 0 1000 1000">
<g><path fill="#C5C5C5" d="M836.8,467.2c0.2-5.8,0.3-11.1,0.3-15.3c0-69.8-27.2-135.4-76.5-184.8c-49.4-49.4-115-76.5-184.8-76.5c-54.1,0-107.3,18.4-153.8,53.2c-31.8,23.8-58.5,54.1-77.7,87.7c-21.1-11-44.5-16.7-68.7-16.7c-38.8,0-76.1,18-105,50.7c-19.3,21.8-33,48.3-39.7,75.9c-32.7,12.9-61.9,35.1-83,63.5C23.1,538,10,577.4,10,618.8c0,105.1,85.5,190.6,190.6,190.6v-0.5H819v0.3c94.3,0,171-76.7,171-171C990,550.2,922.4,476.7,836.8,467.2z M825.8,769.4L825.8,769.4l-636.9-0.1c-77.8-6-139.3-71.2-139.3-150.6c0-65.5,41.3-123.6,103.2-144.3c0.2-0.1,0.4-0.2,0.6-0.3c6.1-1.7,10.9-6.8,12-13.4c8.8-52.9,54.7-106.4,110.1-106.4c22.7,0,44.4,6.9,62.9,19.9c1.8,1.7,4,3.1,6.6,4l0,0c9.7,3.6,20.5-0.9,24.8-10.3c37.6-80.9,121.5-137.9,206-137.9c122.3,0,221.7,99.5,221.7,221.7c0,8.3-0.4,21.3-1.2,32.7c-0.7,10.2,6.4,19.2,16.5,20.9l0,0c1.8,0.3,3.5,0.3,5.2,0.2v0.1c72.5,0,132.4,59.9,132.4,132.4C950.4,708.4,895.1,765.9,825.8,769.4z"/></g>
</svg>