<svg version="1.1" xmlns="http://www.w3.org/2000/svg" viewBox="0 0 512 512" xmlns:xlink="http://www.w3.org/1999/xlink" enable-background="new 0 0 512 512">
  <g>
    <path fill="#C5C5C5" d="m413.7,304.7v-33.2c0-11.2-9.1-20.3-20.4-20.3h-123.6l-19.9-40.1c-3.4-6.9-10.5-11.3-18.3-11.3h-110.8c-11.3,0-20.4,9.1-20.4,20.3v84.7c-26.7-3.2-47.5-25.3-47.5-52 0-13 5-25.6 14.2-35.3 5.4-5.7 7-14.1 4.1-21.4-5-12.4-7.5-25.2-7.5-38.2 0-58 48.5-105.2 108.1-105.2 43.9,0 82.4,25.8 99.9,65 7.9,17.7 25.9,12.1 30.9,8.5 11-8 24-12.3 37.7-12.3 34.6,0 62.5,27.3 62.7,60.9 0.1,17.9 5.7,24.7 15.8,26.8 24.6,5.2 42.5,26.7 42.5,51.2 0,26.6-20.8,48.8-47.5,51.9zm-40.8,156.7h-231.8v-221h77.7l19.9,40.1c3.4,6.9 10.5,11.3 18.3,11.3h115.9v169.6zm129.1-208.7c0-37.9-23.8-71.8-58.6-86-4.1-52.3-48.9-93.6-103.2-93.6-14.4,0-28.5,2.9-41.4,8.5-26.9-42.9-74.6-69.6-127.1-69.6-82.1,0-148.9,65.4-148.9,145.8-1.06581e-14,14.1 2.1,28.1 6.3,41.7-11.1,15.6-17.1,34.1-17.1,53.2 0,49.1 39,89.5 88.3,92.8v136.1c0,11.2 9.1,20.3 20.4,20.3h272.6c11.3,0 20.4-9.1 20.4-20.3v-136.1c49.3-3.3 88.3-43.7 88.3-92.8z"/>
  </g>
</svg>
