<?xml version="1.0"?>
<svg xmlns="http://www.w3.org/2000/svg" 
    xmlns:xlink="http://www.w3.org/1999/xlink" version="1.1" viewBox="0 0 192 192">
    <g fill="none" fill-rule="nonzero" stroke="none" stroke-width="1" stroke-linecap="butt" stroke-linejoin="miter" stroke-miterlimit="10" stroke-dasharray="" stroke-dashoffset="0" font-family="none" font-weight="none" font-size="none" text-anchor="none" style="mix-blend-mode: normal">
        <path d="M0,192v-192h192v192z" fill="none"/>
        <g fill="#c5c5c5">
            <g id="surface1">
                <path d="M53.76,30.72c-21.18,0 -38.4,17.22 -38.4,38.4c0,3.81 0.57,7.575 1.695,11.235c-8.325,6.525 -13.215,16.485 -13.215,27.165c0,20.22 17.61,36.54 38.1,34.38c5.745,11.7 17.85,19.38 31.02,19.38c12.33,0 23.655,-6.615 29.82,-17.115c3.375,1.17 6.9,1.755 10.5,1.755c11.505,0 21.945,-5.925 27.84,-15.66c1.65,0.21 3.225,0.3 4.8,0.3c23.295,0 42.24,-18.945 42.24,-42.24c0,-23.295 -18.945,-42.24 -42.24,-42.24c-4.695,0 -9.285,0.765 -13.68,2.28c-6.09,-8.58 -16.005,-13.8 -26.64,-13.8c-8.7,0 -16.8,3.36 -22.86,9.375c-7.26,-8.355 -17.76,-13.215 -28.98,-13.215zM61.875,76.035h2.73c0.585,0 1.05,0.48 1.05,1.08v22.41c0,0.615 -0.465,1.08 -1.05,1.08h-2.73c-0.585,0 -1.05,-0.465 -1.05,-1.08v-22.41c0,-0.6 0.465,-1.08 1.05,-1.08zM109.74,76.47c0.555,0 1.035,0.03 1.455,0.105c0.405,0.075 0.72,0.15 1.065,0.255l0.03,0.015c0.36,0.15 0.525,0.48 0.39,0.84l-0.78,2.16c-0.105,0.255 -0.315,0.57 -0.915,0.375c-0.09,-0.015 -0.225,-0.06 -0.48,-0.12c-0.135,-0.015 -0.435,-0.06 -0.765,-0.06c-0.375,0 -0.705,0.045 -0.99,0.135c-0.255,0.09 -0.495,0.24 -0.705,0.45c-0.3,0.3 -0.51,0.615 -0.63,0.93c-0.195,0.555 -0.36,1.41 -0.51,2.52h2.82c0.24,0 0.435,0.075 0.555,0.225c0.09,0.09 0.195,0.27 0.165,0.54l-0.405,2.145c-0.06,0.48 -0.435,0.615 -0.72,0.615h-3.03l-2.25,12.735c-0.255,1.395 -0.57,2.58 -0.915,3.525c-0.405,1.05 -0.825,1.74 -1.41,2.4c-0.615,0.675 -1.305,1.155 -2.055,1.425c-0.75,0.27 -1.635,0.405 -2.64,0.405c-0.495,0 -0.99,-0.015 -1.575,-0.15c-0.435,-0.105 -0.675,-0.165 -0.99,-0.285c-0.3,-0.12 -0.54,-0.48 -0.39,-0.9c0.075,-0.195 0.69,-1.86 0.765,-2.085c0.165,-0.405 0.555,-0.51 0.87,-0.39c0.18,0.075 0.285,0.12 0.48,0.165c0.225,0.03 0.525,0.075 0.75,0.075c0.405,0 0.78,-0.045 1.095,-0.15c0.315,-0.105 0.51,-0.285 0.735,-0.585c0.24,-0.3 0.435,-0.72 0.66,-1.365c0.225,-0.6 0.42,-1.425 0.6,-2.46l2.22,-12.36h-1.8c-0.255,0 -0.45,-0.075 -0.585,-0.225c-0.075,-0.105 -0.165,-0.27 -0.135,-0.555l0.375,-2.13c0.105,-0.465 0.525,-0.6 0.75,-0.615h1.98l0.135,-1.08c0.375,-2.13 1.095,-3.765 2.16,-4.86c1.11,-1.095 2.655,-1.665 4.62,-1.665zM64.605,76.8c0.165,0 0.285,0.135 0.285,0.315c0,-0.18 -0.12,-0.315 -0.285,-0.315zM36.33,83.7l0.36,0.015h0.015c1.965,0 4.005,0.495 5.565,1.38c0.495,0.27 0.72,0.825 0.51,1.335c-0.06,0.165 -0.675,1.665 -0.735,1.83c-0.165,0.405 -0.525,0.66 -0.945,0.66c-0.3,0 -0.54,-0.135 -0.6,-0.165c-1.155,-0.585 -2.91,-0.99 -4.26,-0.99c-0.9,0 -1.53,0.345 -1.53,0.9c0,0.525 1.545,0.99 2.79,1.35l0.315,0.105c1.905,0.555 5.475,1.59 5.475,5.085c0,3.285 -2.61,5.4 -6.645,5.4c-2.175,0 -3.9,-0.375 -5.64,-1.23l-0.195,-0.09c-0.3,-0.165 -0.585,-0.315 -0.975,-0.585c-0.36,-0.3 -0.465,-0.75 -0.27,-1.2l0.705,-1.815c0.165,-0.45 0.54,-0.72 0.99,-0.72c0.24,0 0.465,0.075 0.585,0.15l0.255,0.165l0.36,0.18c1.29,0.765 2.73,1.14 4.275,1.14c1.065,0 1.785,-0.42 1.785,-1.095c0,-0.555 -1.425,-0.945 -2.7,-1.305l-0.36,-0.105c-1.935,-0.51 -5.52,-1.455 -5.52,-5.115c0,-3.105 2.625,-5.28 6.39,-5.28zM91.845,83.7h0.015c1.965,0 3.99,0.51 5.565,1.38c0.495,0.285 0.705,0.84 0.51,1.335c-0.06,0.18 -0.675,1.665 -0.735,1.845c-0.18,0.39 -0.54,0.645 -0.96,0.645c-0.3,0 -0.54,-0.12 -0.6,-0.15c-1.155,-0.585 -2.895,-0.99 -4.245,-0.99c-0.915,0 -1.545,0.345 -1.545,0.9c0,0.525 1.56,0.975 2.79,1.35l0.315,0.105c1.905,0.555 5.49,1.59 5.49,5.085c0,3.285 -2.61,5.4 -6.645,5.4c-2.175,0 -3.915,-0.375 -5.64,-1.23l-0.21,-0.09c-0.3,-0.165 -0.585,-0.315 -0.975,-0.585c-0.36,-0.3 -0.45,-0.75 -0.255,-1.2l0.705,-1.8c0.15,-0.45 0.525,-0.72 0.99,-0.72c0.21,0 0.435,0.045 0.705,0.21c0.135,0.09 0.27,0.165 0.48,0.285c1.305,0.75 2.745,1.125 4.29,1.125c1.065,0 1.785,-0.405 1.785,-1.08c0,-0.555 -1.44,-0.96 -2.7,-1.32l-0.375,-0.105c-1.92,-0.51 -5.52,-1.455 -5.52,-5.115c0,-3.105 2.64,-5.265 6.405,-5.265zM145.62,83.715c0.885,0 1.695,0.045 2.385,0.15c0.735,0.09 1.725,0.345 2.175,0.51c0.285,0.105 0.51,0.3 0.615,0.54l0.15,0.48l-0.12,0.3c-0.21,0.555 -0.36,0.96 -0.54,1.41l-0.21,0.51c-0.165,0.435 -0.54,0.705 -0.975,0.705l-0.195,-0.015l-0.105,-0.045c-0.945,-0.27 -1.845,-0.375 -2.985,-0.375c-1.26,0 -2.16,0.345 -2.76,1.08c-0.66,0.81 -0.99,1.86 -0.99,3.21c0,1.47 0.36,2.61 1.065,3.285c0.69,0.645 1.665,0.975 2.925,0.975c0.555,0 1.08,-0.03 1.545,-0.09c0.39,-0.06 0.765,-0.165 1.26,-0.345l0.24,-0.06h0.135c0.465,0 0.84,0.27 0.99,0.675l0.735,1.89c0.24,0.6 -0.09,1.125 -0.585,1.35c-1.29,0.465 -2.985,0.75 -4.53,0.75c-2.85,0 -5.04,-0.78 -6.525,-2.325c-1.485,-1.515 -2.235,-3.57 -2.235,-6.105c0,-1.17 0.18,-2.28 0.54,-3.27c0.36,-1.05 0.915,-1.95 1.635,-2.715c0.735,-0.765 1.65,-1.38 2.7,-1.815c1.065,-0.435 2.295,-0.66 3.66,-0.66zM52.095,84.09c2.145,0 3.81,0.48 4.95,1.41c1.17,0.945 1.77,2.46 1.77,4.485v8.67c0.03,0.255 -0.135,0.6 -0.51,0.69c0,0 -0.39,0.09 -0.735,0.165c-0.33,0.075 -1.56,0.3 -2.595,0.465c-1.05,0.165 -2.115,0.24 -3.18,0.24c-1.02,0 -1.95,-0.075 -2.775,-0.255c-0.87,-0.18 -1.62,-0.48 -2.22,-0.9c-0.63,-0.405 -1.125,-0.96 -1.47,-1.62c-0.345,-0.645 -0.51,-1.44 -0.51,-2.34c0,-0.9 0.195,-1.695 0.6,-2.385c0.39,-0.675 0.93,-1.245 1.605,-1.695c0.66,-0.435 1.41,-0.765 2.25,-0.96c0.825,-0.21 1.71,-0.315 2.625,-0.315c0.66,0 1.2,0.015 1.62,0.045c0,0 0.57,0.045 1.275,0.135c-0.015,-1.2 -0.27,-1.635 -0.675,-1.92c-0.51,-0.36 -1.29,-0.54 -2.325,-0.54h-0.015c-0.195,0 -2.475,0.015 -4.26,0.915c-0.105,0.075 -0.225,0.105 -0.225,0.105c-0.285,0.09 -0.675,0 -0.81,-0.39l-0.72,-1.8c-0.18,-0.405 0.045,-0.735 0.255,-0.855c0.93,-0.675 3.18,-1.08 3.285,-1.095c0.795,-0.15 2.055,-0.255 2.79,-0.255zM76.2,84.105c1.05,0 2.13,0.195 3.075,0.57c0.69,0.27 1.365,0.75 2.07,1.47c0.495,0.495 1.155,1.47 1.41,2.37c0.54,1.785 0.435,3.405 0.33,4.2c-0.06,0.435 -0.405,0.63 -0.705,0.645l-9.825,-0.015c0.105,1.14 0.45,1.935 1.05,2.49c0.72,0.66 1.83,1.02 3.24,1.02h0.045c2.115,0 3.105,-0.345 3.825,-0.615l0.21,-0.06c0.3,-0.105 0.72,-0.015 0.87,0.375l0.675,1.74c0.18,0.405 0.075,0.765 -0.27,0.945c-0.72,0.375 -2.355,0.975 -5.34,0.99h-0.045c-1.44,0 -2.715,-0.195 -3.795,-0.585c-1.095,-0.39 -2.01,-0.96 -2.715,-1.665c-0.72,-0.735 -1.245,-1.59 -1.575,-2.565c-0.33,-0.945 -0.495,-2.01 -0.495,-3.15c0,-1.125 0.165,-2.19 0.465,-3.165c0.315,-0.975 0.81,-1.845 1.47,-2.595c0.66,-0.735 1.5,-1.335 2.49,-1.77c0.99,-0.42 2.175,-0.63 3.54,-0.63zM117.72,84.105c1.275,0 2.43,0.21 3.405,0.63c0.975,0.42 1.8,1.005 2.46,1.725c0.645,0.735 1.14,1.605 1.455,2.58c0.3,0.975 0.465,2.025 0.465,3.135c0,1.11 -0.165,2.16 -0.465,3.12c-0.315,0.99 -0.81,1.86 -1.455,2.58c-0.675,0.735 -1.5,1.32 -2.46,1.725c-0.99,0.42 -2.13,0.615 -3.405,0.615c-1.275,0 -2.415,-0.195 -3.39,-0.615c-0.975,-0.405 -1.8,-0.99 -2.46,-1.725c-0.66,-0.72 -1.14,-1.59 -1.455,-2.58c-0.3,-0.96 -0.465,-2.01 -0.465,-3.12c0,-1.11 0.165,-2.16 0.465,-3.135c0.315,-0.975 0.795,-1.845 1.455,-2.58c0.645,-0.72 1.47,-1.305 2.445,-1.725c0.99,-0.42 2.13,-0.63 3.405,-0.63zM158.805,84.105c1.05,0 2.115,0.195 3.075,0.57c0.675,0.285 1.35,0.75 2.055,1.47c0.51,0.495 1.155,1.47 1.425,2.37c0.57,1.89 0.405,3.585 0.3,4.23c-0.045,0.39 -0.36,0.615 -0.66,0.615l-9.84,-0.015c0.105,1.14 0.435,1.935 1.035,2.475c0.72,0.675 1.845,1.02 3.24,1.02h0.045c2.13,0 3.12,-0.345 3.84,-0.6l0.21,-0.06c0.3,-0.105 0.705,-0.015 0.87,0.375l0.66,1.74c0.18,0.39 0.09,0.75 -0.255,0.945c-0.72,0.36 -2.355,0.975 -5.34,0.975h-0.045c-1.455,0 -2.73,-0.18 -3.795,-0.57c-1.095,-0.39 -2.01,-0.96 -2.73,-1.665c-0.72,-0.735 -1.23,-1.59 -1.575,-2.58c-0.315,-0.93 -0.48,-1.995 -0.48,-3.135c0,-1.125 0.165,-2.19 0.465,-3.165c0.315,-0.975 0.81,-1.86 1.455,-2.595c0.675,-0.75 1.515,-1.335 2.505,-1.77c0.975,-0.42 2.16,-0.63 3.54,-0.63zM135.48,84.105c0.69,0.045 1.59,0.225 1.815,0.315c0.3,0.09 0.525,0.42 0.405,0.825v0.015c-0.105,0.255 -0.6,1.62 -0.78,2.055c-0.21,0.51 -0.63,0.525 -0.78,0.525c-0.06,-0.015 -0.6,-0.135 -1.08,-0.135c-0.435,0 -0.9,0.06 -1.26,0.165c-0.42,0.12 -0.795,0.345 -1.125,0.645c-0.33,0.3 -0.585,0.735 -0.795,1.29c-0.195,0.54 -0.315,1.44 -0.315,2.43v7.305c0,0.375 -0.315,0.675 -0.705,0.675h-2.685c-0.375,0 -0.69,-0.3 -0.69,-0.675v-14.625c0,-0.375 0.3,-0.675 0.675,-0.675h2.625c0.375,0 0.675,0.3 0.675,0.675v0.315c0.36,-0.255 0.765,-0.495 1.2,-0.69c0.645,-0.27 1.41,-0.51 2.82,-0.435zM36.705,84.48c0.975,0 1.935,0.135 2.82,0.36c-0.885,-0.225 -1.845,-0.36 -2.82,-0.36zM75.96,87.375c-1.185,0 -2.04,0.405 -2.625,1.23c-0.3,0.42 -0.525,0.96 -0.675,1.62l6.42,0.015c-0.105,-0.72 -0.285,-1.245 -0.57,-1.635c-0.6,-0.855 -1.395,-1.23 -2.55,-1.23zM158.55,87.375c-1.185,0 -2.04,0.405 -2.61,1.23c-0.315,0.42 -0.54,0.96 -0.675,1.62l6.405,0.015c-0.09,-0.705 -0.285,-1.245 -0.57,-1.635c-0.6,-0.855 -1.395,-1.23 -2.55,-1.23zM117.72,87.435c-1.215,0 -2.055,0.375 -2.625,1.17c-0.57,0.825 -0.87,2.025 -0.87,3.57c0,1.545 0.3,2.76 0.885,3.585c0.555,0.81 1.395,1.185 2.61,1.185c1.23,0 2.07,-0.375 2.64,-1.185c0.6,-0.84 0.9,-2.04 0.9,-3.585c0,-1.545 -0.3,-2.745 -0.9,-3.57c-0.57,-0.795 -1.41,-1.17 -2.64,-1.17zM149.01,87.54c0,0 0.03,0 0.09,0c-0.045,0 -0.09,0 -0.09,0zM41.34,87.96c-0.075,0.15 -0.18,0.18 -0.285,0.18c0.015,0 0.015,0 0.045,0c0.09,0 0.18,-0.045 0.24,-0.18zM96.48,87.96c-0.06,0.15 -0.165,0.18 -0.27,0.18c0.015,0 0.015,0 0.03,0c0.09,0 0.195,-0.045 0.24,-0.18zM86.4,90.975c0.345,0.525 0.84,0.93 1.395,1.26c-0.555,-0.33 -1.05,-0.735 -1.395,-1.26zM52.275,92.895c-1.395,0 -2.19,0.36 -2.475,0.525l-0.165,0.105c-0.495,0.33 -0.735,0.81 -0.735,1.515c0,0.45 0.09,0.795 0.24,1.02c0.12,0.165 0.15,0.21 0.51,0.465l0.015,0.015c0.06,0.045 0.9,0.555 2.73,0.465c1.005,-0.06 1.935,-0.195 2.4,-0.285v-3.66c-0.465,-0.045 -1.395,-0.15 -2.4,-0.165zM149.235,96.705c-0.075,0 -0.12,0.015 -0.12,0.015c0,0 0.06,0 0.12,0zM64.89,99.525c0,0.18 -0.12,0.315 -0.285,0.315c0.165,0 0.285,-0.135 0.285,-0.315z"/>
            </g>
        </g>
    </g>
</svg>
