<?xml version="1.0" encoding="utf-8"?>
<svg width="30" height="30" xmlns="http://www.w3.org/2000/svg">
  <path id="datapack" d="m8.01961,23.1l0,-5.2c0,-0.3 0.3,-0.4 0.5,-0.3l4.7,2c0.1,0.1 0.2,0.2 0.2,0.3l0,5.2c0,0.3 -0.3,0.4 -0.5,0.3l-4.7,-2c-0.1,-0.1 -0.2,-0.2 -0.2,-0.3zm10.8,-5l-4.4,1.9l0,4.8l4.4,-1.9l0,-4.8m0.2,-0.6c0.2,0 0.4,0.2 0.4,0.4l0,5.2c0,0.1 -0.1,0.3 -0.2,0.3l-4.7,2c0,0 -0.1,0 -0.1,0c-0.2,0 -0.4,-0.2 -0.4,-0.4l0,-5.2c0,-0.1 0.1,-0.3 0.2,-0.3l4.7,-2c0,0 0,0 0.1,0l0,0zm-5.4,-2.9l-4.5,2l4.5,2l4.5,-2l-4.5,-2m0,-0.6c0,0 0.1,0 0.1,0l5,2.2c0.3,0.1 0.3,0.5 0,0.6l-5,2.2c0,0 -0.1,0 -0.1,0c0,0 -0.1,0 -0.1,0l-5,-2.2c-0.3,-0.1 -0.3,-0.5 0,-0.6l5,-2.2c0,0 0.1,0 0.1,0l0,0z" fill="black"/>
  <path id="cloud" d="m21.21902,7.4c-0.6,-1.7 -2.3,-2.9 -4.2,-2.9c-0.6,0 -1.2,0.1 -1.7,0.4c-1.3,-1.2 -3,-1.9 -4.8,-1.9c-3.7,0 -6.7,2.9 -7,6.5c-2.4,1 -3.9,3.4 -3.6,6.1c0.3,3 3,5.3 6,5.3l0.3,0l0,-2.4l-0.3,0c-1.9,0 -3.6,-1.6 -3.6,-3.6c0,-1.6 1.1,-3.1 2.7,-3.4l1,-0.2l-0.1,-1.2l0,0c0,-0.1 0,-0.1 0,-0.2c0,-2.5 2.1,-4.6 4.6,-4.6c1.4,0 2.7,0.6 3.6,1.8l0.7,0.9l0,-0.1c0.4,-0.7 1.2,-1.2 2.1,-1.2c1.3,0 2.4,1.1 2.4,2.4c0,0.2 -0.1,0.8 -0.1,0.8l0,0.1l0.1,0c0,0 0.9,-0.2 1.9,-0.2c2.6,0 4.6,2.2 4.3,4.8c-0.1,1.2 -0.8,2.5 -1.9,3.2c-0.9,0.6 -1.9,0.6 -2.3,0.6c0,0.4 0,0.7 0,1.1c0,0.4 0,0.8 0,1.2l0.1,0c3.7,-0.1 6.7,-3.1 6.7,-6.7c-0.3,-3.5 -3.2,-6.5 -6.9,-6.6z" fill="black"/>
</svg>