<?xml version="1.0" encoding="utf-8"?>
<!-- Generator: Adobe Illustrator 21.0.2, SVG Export Plug-In . SVG Version: 6.00 Build 0)  -->
<!DOCTYPE svg PUBLIC "-//W3C//DTD SVG 1.1//EN" "http://www.w3.org/Graphics/SVG/1.1/DTD/svg11.dtd">
<svg version="1.1" xmlns="http://www.w3.org/2000/svg" xmlns:xlink="http://www.w3.org/1999/xlink" x="0px" y="0px"
	 viewBox="0 0 392.9 99" style="enable-background:new 0 0 392.9 99;" xml:space="preserve">
<style type="text/css">
	.st0{fill:#008BB3;}
	.st1{fill:#B1B0AF;}
	.st2{display:none;}
</style>
<g id="Layer_1">
	<path class="st0" d="M78.8,22.9c-2.3-6.3-8.4-10.5-15-10.5c-2.2,0-4.3,0.4-6.3,1.3c-4.7-4.5-10.8-6.9-17.3-6.9
		C27,6.8,16,17.1,15.1,30.2C7.2,33.5,2,41.2,2,49.9c0,11.8,9.6,21.4,21.4,21.4c2.3,0,5,0,7.9,0l1.3-8.5l-9.1,0
		c-7,0-12.8-5.9-12.8-13c0-5.9,4-11,9.8-12.4l3.6-0.8l-0.3-4l0-0.1c0-0.2,0-0.5,0-0.7c0-9.1,7.4-16.4,16.4-16.4
		c5.1,0,9.8,2.3,13,6.4l2.6,3.4l0.1-0.2c1.5-2.7,4.4-4.3,7.4-4.3c4.7,0,8.6,3.8,8.6,8.6c0,0.9-0.4,2.9-0.4,2.9l0,0.2l0.2-0.1
		c0,0,3.3-0.9,6.8-0.9c8.6,0,15.6,7,15.6,15.6c0,8.6-7,15.6-15.6,15.6l-5.1,0l-4.7,8.5c4.4,0,8,0,10.1,0h0h0
		c13.3-0.4,24.1-11.2,24.1-24.1C102.7,34,92,23.1,78.8,22.9z"/>
	<g>
		<g>
			<path class="st0" d="M133.6,71.2L112.7,17h13.1l15,41.6l15-41.6H169l-20.9,54.2H133.6z"/>
			<path class="st0" d="M174.6,71.2V17h10.3v54.2H174.6z"/>
			<path class="st0" d="M191.8,51.6c0-11.1,7.8-20.6,20.7-20.6c13,0,20.8,9.4,20.8,20.6c0,11.1-7.8,20.6-20.8,20.6
				C199.6,72.2,191.8,62.7,191.8,51.6z M222.6,51.6c0-6.1-3.6-11.4-10.1-11.4c-6.4,0-10,5.3-10,11.4c0,6.2,3.6,11.5,10,11.5
				C219,63,222.6,57.7,222.6,51.6z"/>
			<path class="st0" d="M237.7,51.6c0-12,8.8-20.6,20.8-20.6c8,0,12.9,3.5,15.5,7.1l-6.7,6.3c-1.9-2.8-4.7-4.2-8.3-4.2
				c-6.3,0-10.6,4.6-10.6,11.4S252.7,63,259,63c3.6,0,6.4-1.6,8.3-4.3l6.7,6.3c-2.6,3.6-7.5,7.2-15.5,7.2
				C246.5,72.2,237.7,63.7,237.7,51.6z"/>
			<path class="st0" d="M279,21.6c0-3.4,2.8-6.1,6.1-6.1c3.4,0,6.2,2.7,6.2,6.1s-2.8,6.2-6.2,6.2C281.7,27.8,279,25,279,21.6z
				 M280,71.2V32h10.3v39.2H280z"/>
			<path class="st0" d="M303.4,61.4V41h-6.5v-9h6.5V21.3h10.3V32h8v9h-8v17.6c0,2.5,1.3,4.4,3.6,4.4c1.5,0,3-0.6,3.6-1.2l2.2,7.9
				c-1.5,1.4-4.3,2.5-8.6,2.5C307.3,72.2,303.4,68.5,303.4,61.4z"/>
			<path class="st0" d="M331.4,77.3c0.9,0.4,2.3,0.7,3.2,0.7c2.7,0,4.5-0.7,5.4-2.8l1.5-3.4L325.6,32h11l10.2,27.3L357.2,32h11
				l-18.4,45.7c-2.9,7.4-8.1,9.3-14.9,9.5c-1.1,0-3.8-0.2-5-0.7L331.4,77.3z"/>
		</g>
	</g>
	<g>
		<path class="st1" d="M377.7,38.9v-5.8h-2.1V32h5.4v1.1h-2.1v5.8H377.7z"/>
		<path class="st1" d="M388.1,38.9v-5.3l-2.1,5.3h-0.5l-2.1-5.3v5.3h-1.2V32h1.7l1.9,4.7l1.9-4.7h1.7v6.9H388.1z"/>
	</g>
	<polygon class="st0" points="45.1,38.5 60.8,38.5 52.2,62.8 65,62.8 46,96.3 49.9,71.4 39.2,71.4 	"/>
</g>
<g id="Layer_2" class="st2">
</g>
</svg>
