<?xml version="1.0" encoding="utf-8"?>
<!-- Generator: Adobe Illustrator 23.0.1, SVG Export Plug-In . SVG Version: 6.00 Build 0)  -->
<svg version="1.1" id="Capa_1" xmlns="http://www.w3.org/2000/svg" xmlns:xlink="http://www.w3.org/1999/xlink" x="0px" y="0px"
	 viewBox="0 0 32 32" style="enable-background:new 0 0 32 32;" xml:space="preserve">
<style type="text/css">
	.st0{fill:#C5C5C5;}
</style>
<g>
	<path class="st0" d="M5,22.4l0-10c0-0.5,0.5-0.8,1-0.6l9.1,3.9c0.3,0.1,0.4,0.4,0.4,0.6l0,10c0,0.5-0.5,0.8-1,0.6l-9.1-3.9
		C5.2,23,5,22.7,5,22.4z M25.9,12.9l-8.4,3.6l0,9.3l8.4-3.6L25.9,12.9 M26.3,11.7c0.4,0,0.7,0.3,0.7,0.7l0,10c0,0.3-0.2,0.5-0.4,0.6
		L17.5,27c-0.1,0-0.2,0.1-0.3,0.1c-0.4,0-0.7-0.3-0.7-0.7l0-10c0-0.3,0.2-0.5,0.4-0.6l9.1-3.9C26.1,11.7,26.2,11.7,26.3,11.7
		L26.3,11.7z M15.9,6L7.2,9.9l8.8,3.9l8.7-3.9L15.9,6 M15.9,5C16,5,16.1,5,16.2,5l9.6,4.2c0.5,0.2,0.5,1,0,1.3l-9.6,4.3
		c-0.1,0-0.2,0.1-0.3,0.1c-0.1,0-0.2,0-0.3-0.1l-9.6-4.2c-0.5-0.2-0.5-1,0-1.3L15.7,5C15.7,5,15.8,5,15.9,5L15.9,5z"/>
</g>
</svg>
