<?xml version="1.0"?>
<svg xmlns="http://www.w3.org/2000/svg" 
    xmlns:xlink="http://www.w3.org/1999/xlink" version="1.1" viewBox="0 0 210 210" >
    <g fill="none" fill-rule="nonzero" stroke="none" stroke-width="1" stroke-linecap="butt" stroke-linejoin="miter" stroke-miterlimit="10" stroke-dasharray="" stroke-dashoffset="0" font-family="none" font-weight="none" font-size="none" text-anchor="none" style="mix-blend-mode: normal">
        <path d="M0,210v-210h210v210z" fill="none"/>
        <g fill="#c5c5c5">
            <g id="surface1">
                <path d="M118.125,26.25v13.125h43.22022l-82.28759,82.33887l9.22852,9.22852l82.33886,-82.28761v43.22022h13.125v-65.625zM52.5,52.5c-14.50928,0 -26.25,11.74072 -26.25,26.25v78.75c0,14.50928 11.74072,26.25 26.25,26.25h78.75c14.50928,0 26.25,-11.74072 26.25,-26.25v-65.625l-13.125,13.125v52.5c0,7.229 -5.896,13.125 -13.125,13.125h-78.75c-7.229,0 -13.125,-5.896 -13.125,-13.125v-78.75c0,-7.229 5.896,-13.125 13.125,-13.125h52.5l13.125,-13.125z"/>
            </g>
        </g>
    </g>
</svg>
