<?xml version="1.0" encoding="utf-8"?>
<!-- Generator: Adobe Illustrator 23.0.1, SVG Export Plug-In . SVG Version: 6.00 Build 0)  -->
<svg version="1.1" id="Layer_1" xmlns="http://www.w3.org/2000/svg" xmlns:xlink="http://www.w3.org/1999/xlink" x="0px" y="0px"
	 viewBox="0 0 50 40" style="enable-background:new 0 0 50 40;" xml:space="preserve">
<style type="text/css">
	.st0{fill:#231F20;}
</style>
<path id="Vlocity" class="st0" d="M32.3,13.5c-0.6-1.7-2.3-2.9-4.2-2.9c-0.6,0-1.2,0.1-1.7,0.4c-1.3-1.2-3-1.9-4.8-1.9
	c-3.7,0-6.7,2.9-7,6.5c-2.4,1-3.9,3.4-3.6,6.1c0.3,3,3,5.3,6,5.3h0.3l0-2.4H17c-1.9,0-3.6-1.6-3.6-3.6c0-1.6,1.1-3.1,2.7-3.4l1-0.2
	L17,16.2v0c0-0.1,0-0.1,0-0.2c0-2.5,2.1-4.6,4.6-4.6c1.4,0,2.7,0.6,3.6,1.8l0.7,0.9l0-0.1c0.4-0.7,1.2-1.2,2.1-1.2
	c1.3,0,2.4,1.1,2.4,2.4c0,0.2-0.1,0.8-0.1,0.8v0.1l0.1,0c0,0,0.9-0.2,1.9-0.2c2.6,0,4.6,2.2,4.3,4.8c-0.1,1.2-0.8,2.5-1.9,3.2
	c-0.9,0.6-1.9,0.6-2.3,0.6c0,0.4,0,0.7,0,1.1c0,0.4,0,0.8,0,1.2h0.1c3.7-0.1,6.7-3.1,6.7-6.7C38.9,16.6,36,13.6,32.3,13.5z"/>
<path id="Box_1_" class="st0" d="M19.3,28.6l0-5.2c0-0.3,0.3-0.4,0.5-0.3l4.7,2c0.1,0.1,0.2,0.2,0.2,0.3l0,5.2
	c0,0.3-0.3,0.4-0.5,0.3l-4.7-2C19.4,28.8,19.3,28.7,19.3,28.6z M30.1,23.6l-4.4,1.9l0,4.8l4.4-1.9L30.1,23.6 M30.3,23
	c0.2,0,0.4,0.2,0.4,0.4l0,5.2c0,0.1-0.1,0.3-0.2,0.3l-4.7,2c0,0-0.1,0-0.1,0c-0.2,0-0.4-0.2-0.4-0.4l0-5.2c0-0.1,0.1-0.3,0.2-0.3
	l4.7-2C30.2,23,30.2,23,30.3,23L30.3,23z M24.9,20.1l-4.5,2l4.5,2l4.5-2L24.9,20.1 M24.9,19.5c0,0,0.1,0,0.1,0l5,2.2
	c0.3,0.1,0.3,0.5,0,0.6l-5,2.2c0,0-0.1,0-0.1,0c0,0-0.1,0-0.1,0l-5-2.2c-0.3-0.1-0.3-0.5,0-0.6l5-2.2C24.8,19.5,24.9,19.5,24.9,19.5
	L24.9,19.5z"/>
</svg>
