<?xml version="1.0" encoding="UTF-8"?>
<svg width="100pt" height="100pt" version="1.1" viewBox="0 0 100 100" xmlns="http://www.w3.org/2000/svg">
 <g fill="#424242">
  <path d="m6.25 90.625v-81.25c0-1.7266 1.3984-3.125 3.125-3.125h46.875v12.5c0 1.6562 0.66016 3.2461 1.832 4.418s2.7617 1.832 4.418 1.832h12.5v9.375h6.25v-12.5c0.003906-0.83203-0.32031-1.6289-0.90625-2.2188l-18.75-18.75c-0.58984-0.58594-1.3867-0.91016-2.2188-0.90625h-50c-5.1758 0-9.375 4.1992-9.375 9.375v81.25c0 5.1758 4.1992 9.375 9.375 9.375h21.875v-6.25h-21.875c-1.7266 0-3.125-1.3984-3.125-3.125z"/>
  <path d="m40.969 51.719-3.4688 6.9062-3.4688-6.9062c-0.53125-1.0508-1.6055-1.7148-2.7812-1.7188h-6.25v6.25h4.3125l4.6875 9.375-4.6875 9.375h-4.3125v6.25h6.25c1.1758-0.003906 2.25-0.66797 2.7812-1.7188l3.4688-6.9062 3.4688 6.9062c0.53125 1.0508 1.6055 1.7148 2.7812 1.7188h6.25v-6.25h-4.3125l-4.6875-9.375 4.6875-9.375h4.3125v-6.25h-6.25c-1.1758 0.003906-2.25 0.66797-2.7812 1.7188z"/>
  <path d="m87.5 75v-25h-6.25v28.125c0 0.82812 0.32812 1.625 0.91406 2.2109 0.58594 0.58594 1.3828 0.91406 2.2109 0.91406h15.625v-6.25z"/>
  <path d="m76.188 50.25c-1.168-0.48047-2.5156-0.21094-3.4062 0.6875l-7.1562 7.1562-7.1562-7.1562c-0.89062-0.89844-2.2344-1.1719-3.4023-0.69141-1.1719 0.48047-1.9375 1.6133-1.9414 2.8789v28.125h6.25v-20.594l4.0312 4.0312c1.2188 1.2109 3.1875 1.2109 4.4062 0l4.0625-4.0312v20.594h6.25v-28.125c-0.007812-1.2617-0.76953-2.3945-1.9375-2.875z"/>
 </g>
</svg>
