<?xml version="1.0"?>
<svg xmlns="http://www.w3.org/2000/svg" xmlns:xlink="http://www.w3.org/1999/xlink" version="1.1" viewBox="0 0 210 210"><g fill="none" fill-rule="nonzero" stroke="none" stroke-width="1" stroke-linecap="butt" stroke-linejoin="miter" stroke-miterlimit="10" stroke-dasharray="" stroke-dashoffset="0" font-family="none" font-weight="none" font-size="none" text-anchor="none" style="mix-blend-mode: normal"><path d="M0,210v-210h210v210z" fill="none"/><g fill="#424242"><g id="surface1"><path d="M99.44712,0c-15.23888,0.03155 -14.10307,4.10157 -6.05769,12.11538l25.9976,25.9976l-44.67548,44.67548c-9.24429,9.24429 -9.24429,24.07302 0,33.31731l19.6875,19.4351c9.24429,9.21274 24.07302,9.24429 33.31731,0l44.67548,-44.42308l25.49279,25.49279c8.89724,8.89724 12.11538,9.18119 12.11538,-6.05769v-83.04087c0,-27.76442 0.28395,-27.51202 -27.51202,-27.51202zM39.375,40.38462c-21.73828,0 -39.375,17.63672 -39.375,39.375v90.86538c0,21.73828 17.63672,39.375 39.375,39.375h90.86538c21.73828,0 39.375,-17.63672 39.375,-39.375v-51.49038l-24.23077,24.23077v27.25962c0,8.36088 -6.78336,15.14423 -15.14423,15.14423h-90.86538c-8.36088,0 -15.14423,-6.78336 -15.14423,-15.14423v-90.86538c0,-8.36088 6.78336,-15.14423 15.14423,-15.14423h27.76442l24.23077,-24.23077z"/></g></g></g></svg>
