<?xml version="1.0"?>
<svg xmlns="http://www.w3.org/2000/svg" xmlns:xlink="http://www.w3.org/1999/xlink" version="1.1" viewBox="0 0 210 210"><g fill="none" fill-rule="nonzero" stroke="none" stroke-width="1" stroke-linecap="butt" stroke-linejoin="miter" stroke-miterlimit="10" stroke-dasharray="" stroke-dashoffset="0" font-family="none" font-weight="none" font-size="none" text-anchor="none" style="mix-blend-mode: normal"><path d="M0,210v-210h210v210z" fill="none"/><g fill="#424242"><g id="surface1"><path d="M58.8,33.6c-23.16563,0 -42,18.83438 -42,42c0,4.16719 0.62344,8.28516 1.85391,12.28828c-9.10547,7.13672 -14.45391,18.03047 -14.45391,29.71172c0,22.11563 19.26094,39.96563 41.67188,37.60312c6.28359,12.79688 19.52344,21.19688 33.92812,21.19688c13.48594,0 25.87266,-7.23516 32.61563,-18.71953c3.69141,1.27969 7.54688,1.91953 11.48438,1.91953c12.58359,0 24.00234,-6.48047 30.45,-17.12812c1.80469,0.22969 3.52734,0.32813 5.25,0.32813c25.47891,0 46.2,-20.72109 46.2,-46.2c0,-25.47891 -20.72109,-46.2 -46.2,-46.2c-5.13516,0 -10.15547,0.83672 -14.9625,2.49375c-6.66094,-9.38438 -17.50547,-15.09375 -29.1375,-15.09375c-9.51562,0 -18.375,3.675 -25.00312,10.25391c-7.94062,-9.13828 -19.425,-14.45391 -31.69687,-14.45391zM67.67578,83.16328h2.98594c0.63984,0 1.14844,0.525 1.14844,1.18125v24.51094c0,0.67266 -0.50859,1.18125 -1.14844,1.18125h-2.98594c-0.63984,0 -1.14844,-0.50859 -1.14844,-1.18125v-24.51094c0,-0.65625 0.50859,-1.18125 1.14844,-1.18125zM120.02813,83.63906c0.60703,0 1.13203,0.03281 1.59141,0.11484c0.44297,0.08203 0.7875,0.16406 1.16484,0.27891l0.03281,0.01641c0.39375,0.16406 0.57422,0.525 0.42656,0.91875l-0.85313,2.3625c-0.11484,0.27891 -0.34453,0.62344 -1.00078,0.41016c-0.09844,-0.01641 -0.24609,-0.06563 -0.525,-0.13125c-0.14766,-0.01641 -0.47578,-0.06562 -0.83672,-0.06562c-0.41016,0 -0.77109,0.04922 -1.08281,0.14766c-0.27891,0.09844 -0.54141,0.2625 -0.77109,0.49219c-0.32812,0.32813 -0.55781,0.67266 -0.68906,1.01719c-0.21328,0.60703 -0.39375,1.54219 -0.55781,2.75625h3.08438c0.2625,0 0.47578,0.08203 0.60703,0.24609c0.09844,0.09844 0.21328,0.29531 0.18047,0.59063l-0.44297,2.34609c-0.06562,0.525 -0.47578,0.67266 -0.7875,0.67266h-3.31406l-2.46094,13.92891c-0.27891,1.52578 -0.62344,2.82188 -1.00078,3.85547c-0.44297,1.14844 -0.90234,1.90312 -1.54219,2.625c-0.67266,0.73828 -1.42734,1.26328 -2.24766,1.55859c-0.82031,0.29531 -1.78828,0.44297 -2.8875,0.44297c-0.54141,0 -1.08281,-0.01641 -1.72266,-0.16406c-0.47578,-0.11484 -0.73828,-0.18047 -1.08281,-0.31172c-0.32812,-0.13125 -0.59063,-0.525 -0.42656,-0.98437c0.08203,-0.21328 0.75469,-2.03437 0.83672,-2.28047c0.18047,-0.44297 0.60703,-0.55781 0.95156,-0.42656c0.19688,0.08203 0.31172,0.13125 0.525,0.18047c0.24609,0.03281 0.57422,0.08203 0.82031,0.08203c0.44297,0 0.85313,-0.04922 1.19766,-0.16406c0.34453,-0.11484 0.55781,-0.31172 0.80391,-0.63984c0.2625,-0.32812 0.47578,-0.7875 0.72187,-1.49297c0.24609,-0.65625 0.45937,-1.55859 0.65625,-2.69062l2.42812,-13.51875h-1.96875c-0.27891,0 -0.49219,-0.08203 -0.63984,-0.24609c-0.08203,-0.11484 -0.18047,-0.29531 -0.14766,-0.60703l0.41016,-2.32969c0.11484,-0.50859 0.57422,-0.65625 0.82031,-0.67266h2.16563l0.14766,-1.18125c0.41016,-2.32969 1.19766,-4.11797 2.3625,-5.31562c1.21406,-1.19766 2.90391,-1.82109 5.05312,-1.82109zM70.66172,84c0.18047,0 0.31172,0.14766 0.31172,0.34453c0,-0.19688 -0.13125,-0.34453 -0.31172,-0.34453zM39.73594,91.54688l0.39375,0.01641h0.01641c2.14922,0 4.38047,0.54141 6.08672,1.50937c0.54141,0.29531 0.7875,0.90234 0.55781,1.46016c-0.06562,0.18047 -0.73828,1.82109 -0.80391,2.00156c-0.18047,0.44297 -0.57422,0.72188 -1.03359,0.72188c-0.32812,0 -0.59062,-0.14766 -0.65625,-0.18047c-1.26328,-0.63984 -3.18281,-1.08281 -4.65937,-1.08281c-0.98437,0 -1.67344,0.37734 -1.67344,0.98438c0,0.57422 1.68984,1.08281 3.05156,1.47656l0.34453,0.11484c2.08359,0.60703 5.98828,1.73906 5.98828,5.56172c0,3.59297 -2.85469,5.90625 -7.26797,5.90625c-2.37891,0 -4.26562,-0.41016 -6.16875,-1.34531l-0.21328,-0.09844c-0.32812,-0.18047 -0.63984,-0.34453 -1.06641,-0.63984c-0.39375,-0.32812 -0.50859,-0.82031 -0.29531,-1.3125l0.77109,-1.98516c0.18047,-0.49219 0.59063,-0.7875 1.08281,-0.7875c0.2625,0 0.50859,0.08203 0.63984,0.16406l0.27891,0.18047l0.39375,0.19688c1.41094,0.83672 2.98594,1.24687 4.67578,1.24687c1.16484,0 1.95234,-0.45937 1.95234,-1.19766c0,-0.60703 -1.55859,-1.03359 -2.95312,-1.42734l-0.39375,-0.11484c-2.11641,-0.55781 -6.0375,-1.59141 -6.0375,-5.59453c0,-3.39609 2.87109,-5.775 6.98906,-5.775zM100.45547,91.54688h0.01641c2.14922,0 4.36406,0.55781 6.08672,1.50938c0.54141,0.31172 0.77109,0.91875 0.55781,1.46016c-0.06562,0.19687 -0.73828,1.82109 -0.80391,2.01797c-0.19687,0.42656 -0.59062,0.70547 -1.05,0.70547c-0.32812,0 -0.59063,-0.13125 -0.65625,-0.16406c-1.26328,-0.63984 -3.16641,-1.08281 -4.64297,-1.08281c-1.00078,0 -1.68984,0.37734 -1.68984,0.98438c0,0.57422 1.70625,1.06641 3.05156,1.47656l0.34453,0.11484c2.08359,0.60703 6.00469,1.73906 6.00469,5.56172c0,3.59297 -2.85469,5.90625 -7.26797,5.90625c-2.37891,0 -4.28203,-0.41016 -6.16875,-1.34531l-0.22969,-0.09844c-0.32812,-0.18047 -0.63984,-0.34453 -1.06641,-0.63984c-0.39375,-0.32812 -0.49219,-0.82031 -0.27891,-1.3125l0.77109,-1.96875c0.16406,-0.49219 0.57422,-0.7875 1.08281,-0.7875c0.22969,0 0.47578,0.04922 0.77109,0.22969c0.14766,0.09844 0.29531,0.18047 0.525,0.31172c1.42734,0.82031 3.00234,1.23047 4.69219,1.23047c1.16484,0 1.95234,-0.44297 1.95234,-1.18125c0,-0.60703 -1.575,-1.05 -2.95312,-1.44375l-0.41016,-0.11484c-2.1,-0.55781 -6.0375,-1.59141 -6.0375,-5.59453c0,-3.39609 2.8875,-5.75859 7.00547,-5.75859zM159.27188,91.56328c0.96797,0 1.85391,0.04922 2.60859,0.16406c0.80391,0.09844 1.88672,0.37734 2.37891,0.55781c0.31172,0.11484 0.55781,0.32813 0.67266,0.59063l0.16406,0.525l-0.13125,0.32813c-0.22969,0.60703 -0.39375,1.05 -0.59063,1.54219l-0.22969,0.55781c-0.18047,0.47578 -0.59063,0.77109 -1.06641,0.77109l-0.21328,-0.01641l-0.11484,-0.04922c-1.03359,-0.29531 -2.01797,-0.41016 -3.26484,-0.41016c-1.37813,0 -2.3625,0.37734 -3.01875,1.18125c-0.72187,0.88594 -1.08281,2.03437 -1.08281,3.51094c0,1.60781 0.39375,2.85469 1.16484,3.59297c0.75469,0.70547 1.82109,1.06641 3.19922,1.06641c0.60703,0 1.18125,-0.03281 1.68984,-0.09844c0.42656,-0.06562 0.83672,-0.18047 1.37813,-0.37734l0.2625,-0.06562h0.14766c0.50859,0 0.91875,0.29531 1.08281,0.73828l0.80391,2.06719c0.2625,0.65625 -0.09844,1.23047 -0.63984,1.47656c-1.41094,0.50859 -3.26484,0.82031 -4.95469,0.82031c-3.11719,0 -5.5125,-0.85312 -7.13672,-2.54297c-1.62422,-1.65703 -2.44453,-3.90469 -2.44453,-6.67734c0,-1.27969 0.19688,-2.49375 0.59063,-3.57656c0.39375,-1.14844 1.00078,-2.13281 1.78828,-2.96953c0.80391,-0.83672 1.80469,-1.50937 2.95313,-1.98516c1.16484,-0.47578 2.51016,-0.72187 4.00312,-0.72187zM56.97891,91.97344c2.34609,0 4.16719,0.525 5.41406,1.54219c1.27969,1.03359 1.93594,2.69062 1.93594,4.90547v9.48281c0.03281,0.27891 -0.14766,0.65625 -0.55781,0.75469c0,0 -0.42656,0.09844 -0.80391,0.18047c-0.36094,0.08203 -1.70625,0.32813 -2.83828,0.50859c-1.14844,0.18047 -2.31328,0.2625 -3.47812,0.2625c-1.11563,0 -2.13281,-0.08203 -3.03516,-0.27891c-0.95156,-0.19688 -1.77188,-0.525 -2.42813,-0.98437c-0.68906,-0.44297 -1.23047,-1.05 -1.60781,-1.77188c-0.37734,-0.70547 -0.55781,-1.575 -0.55781,-2.55938c0,-0.98437 0.21328,-1.85391 0.65625,-2.60859c0.42656,-0.73828 1.01719,-1.36172 1.75547,-1.85391c0.72187,-0.47578 1.54219,-0.83672 2.46094,-1.05c0.90234,-0.22969 1.87031,-0.34453 2.87109,-0.34453c0.72188,0 1.3125,0.01641 1.77188,0.04922c0,0 0.62344,0.04922 1.39453,0.14766c-0.01641,-1.3125 -0.29531,-1.78828 -0.73828,-2.1c-0.55781,-0.39375 -1.41094,-0.59063 -2.54297,-0.59063h-0.01641c-0.21328,0 -2.70703,0.01641 -4.65938,1.00078c-0.11484,0.08203 -0.24609,0.11484 -0.24609,0.11484c-0.31172,0.09844 -0.73828,0 -0.88594,-0.42656l-0.7875,-1.96875c-0.19687,-0.44297 0.04922,-0.80391 0.27891,-0.93516c1.01719,-0.73828 3.47812,-1.18125 3.59297,-1.19766c0.86953,-0.16406 2.24766,-0.27891 3.05156,-0.27891zM83.34375,91.98984c1.14844,0 2.32969,0.21328 3.36328,0.62344c0.75469,0.29531 1.49297,0.82031 2.26406,1.60781c0.54141,0.54141 1.26328,1.60781 1.54219,2.59219c0.59062,1.95234 0.47578,3.72422 0.36094,4.59375c-0.06563,0.47578 -0.44297,0.68906 -0.77109,0.70547l-10.74609,-0.01641c0.11484,1.24688 0.49219,2.11641 1.14844,2.72344c0.7875,0.72188 2.00156,1.11563 3.54375,1.11563h0.04922c2.31328,0 3.39609,-0.37734 4.18359,-0.67266l0.22969,-0.06562c0.32813,-0.11484 0.7875,-0.01641 0.95156,0.41016l0.73828,1.90313c0.19688,0.44297 0.08203,0.83672 -0.29531,1.03359c-0.7875,0.41016 -2.57578,1.06641 -5.84063,1.08281h-0.04922c-1.575,0 -2.96953,-0.21328 -4.15078,-0.63984c-1.19766,-0.42656 -2.19844,-1.05 -2.96953,-1.82109c-0.7875,-0.80391 -1.36172,-1.73906 -1.72266,-2.80547c-0.36094,-1.03359 -0.54141,-2.19844 -0.54141,-3.44531c0,-1.23047 0.18047,-2.39531 0.50859,-3.46172c0.34453,-1.06641 0.88594,-2.01797 1.60781,-2.83828c0.72187,-0.80391 1.64063,-1.46016 2.72344,-1.93594c1.08281,-0.45937 2.37891,-0.68906 3.87188,-0.68906zM128.75625,91.98984c1.39453,0 2.65781,0.22969 3.72422,0.68906c1.06641,0.45938 1.96875,1.09922 2.69062,1.88672c0.70547,0.80391 1.24688,1.75547 1.59141,2.82188c0.32813,1.06641 0.50859,2.21484 0.50859,3.42891c0,1.21406 -0.18047,2.3625 -0.50859,3.4125c-0.34453,1.08281 -0.88594,2.03437 -1.59141,2.82187c-0.73828,0.80391 -1.64062,1.44375 -2.69062,1.88672c-1.08281,0.45938 -2.32969,0.67266 -3.72422,0.67266c-1.39453,0 -2.64141,-0.21328 -3.70781,-0.67266c-1.06641,-0.44297 -1.96875,-1.08281 -2.69062,-1.88672c-0.72187,-0.7875 -1.24688,-1.73906 -1.59141,-2.82187c-0.32812,-1.05 -0.50859,-2.19844 -0.50859,-3.4125c0,-1.21406 0.18047,-2.3625 0.50859,-3.42891c0.34453,-1.06641 0.86953,-2.01797 1.59141,-2.82188c0.70547,-0.7875 1.60781,-1.42734 2.67422,-1.88672c1.08281,-0.45937 2.32969,-0.68906 3.72422,-0.68906zM173.69297,91.98984c1.14844,0 2.31328,0.21328 3.36328,0.62344c0.73828,0.31172 1.47656,0.82031 2.24766,1.60781c0.55781,0.54141 1.26328,1.60781 1.55859,2.59219c0.62344,2.06719 0.44297,3.92109 0.32813,4.62656c-0.04922,0.42656 -0.39375,0.67266 -0.72188,0.67266l-10.7625,-0.01641c0.11484,1.24688 0.47578,2.11641 1.13203,2.70703c0.7875,0.73828 2.01797,1.11562 3.54375,1.11562h0.04922c2.32969,0 3.4125,-0.37734 4.2,-0.65625l0.22969,-0.06562c0.32813,-0.11484 0.77109,-0.01641 0.95156,0.41016l0.72188,1.90313c0.19688,0.42656 0.09844,0.82031 -0.27891,1.03359c-0.7875,0.39375 -2.57578,1.06641 -5.84063,1.06641h-0.04922c-1.59141,0 -2.98594,-0.19688 -4.15078,-0.62344c-1.19766,-0.42656 -2.19844,-1.05 -2.98594,-1.82109c-0.7875,-0.80391 -1.34531,-1.73906 -1.72266,-2.82188c-0.34453,-1.01719 -0.525,-2.18203 -0.525,-3.42891c0,-1.23047 0.18047,-2.39531 0.50859,-3.46172c0.34453,-1.06641 0.88594,-2.03437 1.59141,-2.83828c0.73828,-0.82031 1.65703,-1.46016 2.73984,-1.93594c1.06641,-0.45937 2.3625,-0.68906 3.87188,-0.68906zM148.18125,91.98984c0.75469,0.04922 1.73906,0.24609 1.98516,0.34453c0.32813,0.09844 0.57422,0.45937 0.44297,0.90234v0.01641c-0.11484,0.27891 -0.65625,1.77188 -0.85313,2.24766c-0.22969,0.55781 -0.68906,0.57422 -0.85312,0.57422c-0.06563,-0.01641 -0.65625,-0.14766 -1.18125,-0.14766c-0.47578,0 -0.98437,0.06562 -1.37813,0.18047c-0.45937,0.13125 -0.86953,0.37734 -1.23047,0.70547c-0.36094,0.32813 -0.63984,0.80391 -0.86953,1.41094c-0.21328,0.59063 -0.34453,1.575 -0.34453,2.65781v7.98984c0,0.41016 -0.34453,0.73828 -0.77109,0.73828h-2.93672c-0.41016,0 -0.75469,-0.32812 -0.75469,-0.73828v-15.99609c0,-0.41016 0.32813,-0.73828 0.73828,-0.73828h2.87109c0.41016,0 0.73828,0.32813 0.73828,0.73828v0.34453c0.39375,-0.27891 0.83672,-0.54141 1.3125,-0.75469c0.70547,-0.29531 1.54219,-0.55781 3.08437,-0.47578zM40.14609,92.4c1.06641,0 2.11641,0.14766 3.08438,0.39375c-0.96797,-0.24609 -2.01797,-0.39375 -3.08438,-0.39375zM83.08125,95.56641c-1.29609,0 -2.23125,0.44297 -2.87109,1.34531c-0.32812,0.45937 -0.57422,1.05 -0.73828,1.77187l7.02188,0.01641c-0.11484,-0.7875 -0.31172,-1.36172 -0.62344,-1.78828c-0.65625,-0.93516 -1.52578,-1.34531 -2.78906,-1.34531zM173.41406,95.56641c-1.29609,0 -2.23125,0.44297 -2.85469,1.34531c-0.34453,0.45937 -0.59063,1.05 -0.73828,1.77187l7.00547,0.01641c-0.09844,-0.77109 -0.31172,-1.36172 -0.62344,-1.78828c-0.65625,-0.93516 -1.52578,-1.34531 -2.78906,-1.34531zM128.75625,95.63203c-1.32891,0 -2.24766,0.41016 -2.87109,1.27969c-0.62344,0.90234 -0.95156,2.21484 -0.95156,3.90469c0,1.68984 0.32813,3.01875 0.96797,3.92109c0.60703,0.88594 1.52578,1.29609 2.85469,1.29609c1.34531,0 2.26406,-0.41016 2.8875,-1.29609c0.65625,-0.91875 0.98438,-2.23125 0.98438,-3.92109c0,-1.68984 -0.32812,-3.00234 -0.98437,-3.90469c-0.62344,-0.86953 -1.54219,-1.27969 -2.8875,-1.27969zM162.97969,95.74688c0,0 0.03281,0 0.09844,0c-0.04922,0 -0.09844,0 -0.09844,0zM45.21563,96.20625c-0.08203,0.16406 -0.19687,0.19688 -0.31172,0.19688c0.01641,0 0.01641,0 0.04922,0c0.09844,0 0.19687,-0.04922 0.2625,-0.19688zM105.525,96.20625c-0.06562,0.16406 -0.18047,0.19688 -0.29531,0.19688c0.01641,0 0.01641,0 0.03281,0c0.09844,0 0.21328,-0.04922 0.2625,-0.19688zM94.5,99.50391c0.37734,0.57422 0.91875,1.01719 1.52578,1.37812c-0.60703,-0.36094 -1.14844,-0.80391 -1.52578,-1.37812zM57.17578,101.60391c-1.52578,0 -2.39531,0.39375 -2.70703,0.57422l-0.18047,0.11484c-0.54141,0.36094 -0.80391,0.88594 -0.80391,1.65703c0,0.49219 0.09844,0.86953 0.2625,1.11563c0.13125,0.18047 0.16406,0.22969 0.55781,0.50859l0.01641,0.01641c0.06563,0.04922 0.98438,0.60703 2.98594,0.50859c1.09922,-0.06562 2.11641,-0.21328 2.625,-0.31172v-4.00312c-0.50859,-0.04922 -1.52578,-0.16406 -2.625,-0.18047zM163.22578,105.77109c-0.08203,0 -0.13125,0.01641 -0.13125,0.01641c0,0 0.06563,0 0.13125,0zM70.97344,108.85547c0,0.19687 -0.13125,0.34453 -0.31172,0.34453c0.18047,0 0.31172,-0.14766 0.31172,-0.34453z"/></g></g></g></svg>
