<?xml version="1.0" encoding="iso-8859-1"?>
<!-- Generator: Adobe Illustrator 19.0.0, SVG Export Plug-In . SVG Version: 6.00 Build 0)  -->
<svg version="1.1" id="Capa_1" xmlns="http://www.w3.org/2000/svg" xmlns:xlink="http://www.w3.org/1999/xlink" x="0px" y="0px"
	 viewBox="0 0 512 512" style="enable-background:new 0 0 512 512;" xml:space="preserve">

			<path fill="#424242" d="M0,464c0,26.51,21.49,48,48,48h224c26.51,0,48-21.49,48-48V128H0V464z M32,160h256v304c0,8.837-7.163,16-16,16H48
				c-8.837,0-16-7.163-16-16V160z"/>
			<rect fill="#424242" x="192" y="192" width="32" height="256"/>
			<rect fill="#424242" x="96" y="192" width="32" height="256"/>
			<path fill="#424242" d="M224,0H96v64H0v32h320V64h-96V0z M192,64h-64V32h64V64z"/>
			<rect fill="#424242" x="352" y="224" width="96" height="32"/>
			<rect fill="#424242" x="480" y="224" width="32" height="32"/>
			<rect fill="#424242" x="384" y="320" width="64" height="32"/>
			<rect fill="#424242" x="480" y="320" width="32" height="32"/>
</svg>
